# xmcd
#
# Track frame offsets:
#	150
#	17623
#	31576
#	46745
#	64329
#	80330
#	98855
#	121151
#	138973
#
# Disc length: 2062 seconds
#
# Revision: 0
# Processed by: cddbd v1.5.2PL0 Copyright (c) Steve Scherf et al.
# Submitted via: EasyCDDAExtractor 12.0.0.1
#
DISCID=64080c09
DTITLE=박정현(Lena Park) - 7_사랑을 말하는 몇 가지 방법 (T Entertainment-2009)
DYEAR=2009
DGENRE=ballad
TTITLE0=치카치카
TTITLE1=청순가련 리나 박
TTITLE2=나 같은 사람 너 같은 사람
TTITLE3=만져줘요
TTITLE4=비밀
TTITLE5=Sunday Brunch
TTITLE6=비가
TTITLE7=사랑은 이런게 아닌데
TTITLE8=만나러 가는 길
EXTD=
EXTT0=
EXTT1=
EXTT2=
EXTT3=
EXTT4=
EXTT5=
EXTT6=
EXTT7=
EXTT8=
PLAYORDER=
